Pontano-Bold.ufo
<glyph name="parenleft" format="1">
  <advance width="602"/>
  <unicode hex="0028"/>
  <outline>
    <contour>
      <point x="523" y="-181" type="curve"/>
      <point x="566" y="-48" type="line"/>
      <point x="346" y="25"/>
      <point x="228" y="289"/>
      <point x="228" y="703" type="curve" smooth="yes"/>
      <point x="228" y="1117"/>
      <point x="346" y="1381"/>
      <point x="566" y="1454" type="curve"/>
      <point x="523" y="1587" type="line"/>
      <point x="232" y="1518"/>
      <point x="-11" y="1242"/>
      <point x="-11" y="703" type="curve" smooth="yes"/>
      <point x="-11" y="164"/>
      <point x="232" y="-112"/>
    </contour>
  </outline>
</glyph>
<glyph name="parenright" format="1">
  <advance width="602"/>
  <unicode hex="0029"/>
  <outline>
    <contour>
      <point x="32" y="-181" type="line"/>
      <point x="323" y="-112"/>
      <point x="566" y="164"/>
      <point x="566" y="703" type="curve" smooth="yes"/>
      <point x="566" y="1242"/>
      <point x="323" y="1518"/>
      <point x="32" y="1587" type="curve"/>
      <point x="-11" y="1454" type="line"/>
      <point x="209" y="1381"/>
      <point x="327" y="1117"/>
      <point x="327" y="703" type="curve" smooth="yes"/>
      <point x="327" y="289"/>
      <point x="209" y="25"/>
      <point x="-11" y="-48" type="curve"/>
    </contour>
  </outline>
</glyph>
<glyph name="slash" format="1">
  <advance width="592"/>
  <unicode hex="002F"/>
  <outline>
    <contour>
      <point x="211" y="-49" type="line"/>
      <point x="641" y="1493" type="line"/>
      <point x="458" y="1534" type="line"/>
      <point x="43" y="-8" type="line"/>
    </contour>
  </outline>
</glyph>
<glyph name="four" format="1">
  <advance width="1252"/>
  <unicode hex="0034"/>
  <outline>
    <contour>
      <point x="750" y="0" type="line"/>
      <point x="968" y="0" type="line"/>
      <point x="968" y="346" type="line"/>
      <point x="1199" y="346" type="line"/>
      <point x="1199" y="516" type="line"/>
      <point x="967" y="516" type="line"/>
      <point x="967" y="1464" type="line"/>
      <point x="651" y="1464" type="line"/>
      <point x="103" y="513" type="line"/>
      <point x="103" y="346" type="line"/>
      <point x="750" y="346" type="line"/>
    </contour>
    <contour>
      <point x="315" y="516" type="line"/>
      <point x="750" y="1317" type="line"/>
      <point x="750" y="516" type="line"/>
    </contour>
  </outline>
</glyph>
<glyph name="nine" format="1">
  <advance width="1253"/>
  <unicode hex="0039"/>
  <outline>
    <contour>
      <point x="571" y="-24" type="curve" smooth="yes"/>
      <point x="907" y="-24"/>
      <point x="1126" y="268"/>
      <point x="1126" y="769" type="curve" smooth="yes"/>
      <point x="1126" y="1217"/>
      <point x="915" y="1489"/>
      <point x="581" y="1489" type="curve" smooth="yes"/>
      <point x="282" y="1489"/>
      <point x="102" y="1250"/>
      <point x="102" y="989" type="curve" smooth="yes"/>
      <point x="102" y="684"/>
      <point x="305" y="518"/>
      <point x="548" y="517" type="curve" smooth="yes"/>
      <point x="661" y="516"/>
      <point x="767" y="536"/>
      <point x="872" y="610" type="curve"/>
      <point x="858" y="259"/>
      <point x="728" y="160"/>
      <point x="555" y="161" type="curve" smooth="yes"/>
      <point x="475" y="161"/>
      <point x="377" y="186"/>
      <point x="271" y="244" type="curve"/>
      <point x="209" y="69" type="line"/>
      <point x="328" y="5"/>
      <point x="473" y="-24"/>
    </contour>
    <contour>
      <point x="581" y="694" type="curve" smooth="yes"/>
      <point x="420" y="695"/>
      <point x="341" y="766"/>
      <point x="341" y="993" type="curve" smooth="yes"/>
      <point x="341" y="1199"/>
      <point x="433" y="1303"/>
      <point x="581" y="1303" type="curve" smooth="yes"/>
      <point x="793" y="1303"/>
      <point x="872" y="1068"/>
      <point x="872" y="829" type="curve" smooth="yes"/>
      <point x="872" y="798" type="line"/>
      <point x="772" y="724"/>
      <point x="683" y="694"/>
    </contour>
  </outline>
</glyph>
<glyph name="semicolon" format="1">
  <advance width="478"/>
  <unicode hex="003B"/>
  <outline>
    <contour>
      <point x="221" y="-301" type="line"/>
      <point x="365" y="-222"/>
      <point x="400" y="-115"/>
      <point x="399" y="89" type="curve"/>
      <point x="399" y="243" type="line"/>
      <point x="122" y="243" type="line"/>
      <point x="122" y="-4" type="line"/>
      <point x="245" y="-17" type="line"/>
      <point x="245" y="-90"/>
      <point x="184" y="-174"/>
      <point x="150" y="-206" type="curve"/>
    </contour>
    <contour>
      <point x="111" y="808" type="line"/>
      <point x="380" y="808" type="line"/>
      <point x="380" y="1050" type="line"/>
      <point x="111" y="1050" type="line"/>
    </contour>
  </outline>
</glyph>
<glyph name="equal" format="1">
  <advance width="820"/>
  <unicode hex="003D"/>
  <outline>
    <contour>
      <point x="135" y="264" type="line"/>
      <point x="685" y="264" type="line"/>
      <point x="685" y="418" type="line"/>
      <point x="135" y="418" type="line"/>
    </contour>
    <contour>
      <point x="135" y="513" type="line"/>
      <point x="685" y="513" type="line"/>
      <point x="685" y="667" type="line"/>
      <point x="135" y="667" type="line"/>
    </contour>
  </outline>
</glyph>
<glyph name="E" format="1">
  <advance width="1234"/>
  <unicode hex="0045"/>
  <outline>
    <contour>
      <point x="617" y="1464" type="move" name="top"/>
    </contour>
    <contour>
      <point x="726" y="0" type="move" name="ogonek"/>
    </contour>
    <contour>
      <point x="617" y="0" type="move" name="bot"/>
    </contour>
    <contour>
      <point x="134" y="0" type="line"/>
      <point x="1164" y="0" type="line"/>
      <point x="1164" y="172" type="line"/>
      <point x="365" y="172" type="line"/>
      <point x="365" y="690" type="line"/>
      <point x="1052" y="690" type="line"/>
      <point x="1052" y="866" type="line"/>
      <point x="365" y="866" type="line"/>
      <point x="365" y="1292" type="line"/>
      <point x="1153" y="1292" type="line"/>
      <point x="1153" y="1464" type="line"/>
      <point x="134" y="1464" type="line"/>
    </contour>
  </outline>
</glyph>
<glyph name="K" format="1">
  <advance width="1307"/>
  <unicode hex="004B"/>
  <outline>
    <contour>
      <point x="134" y="0" type="line"/>
      <point x="365" y="0" type="line"/>
      <point x="365" y="536" type="line"/>
      <point x="580" y="759" type="line"/>
      <point x="1056" y="0" type="line"/>
      <point x="1317" y="0" type="line"/>
      <point x="738" y="922" type="line"/>
      <point x="1265" y="1464" type="line"/>
      <point x="987" y="1464" type="line"/>
      <point x="365" y="809" type="line"/>
      <point x="365" y="1464" type="line"/>
      <point x="134" y="1464" type="line"/>
    </contour>
    <contour>
      <point x="653.5" y="1464" type="move" name="top"/>
    </contour>
    <contour>
      <point x="653.5" y="0" type="move" name="bot"/>
    </contour>
  </outline>
</glyph>
<glyph name="X" format="1">
  <advance width="1315"/>
  <unicode hex="0058"/>
  <outline>
    <contour>
      <point x="-6" y="0" type="line"/>
      <point x="257" y="0" type="line"/>
      <point x="652" y="571" type="line"/>
      <point x="1048" y="0" type="line"/>
      <point x="1321" y="0" type="line"/>
      <point x="790" y="768" type="line"/>
      <point x="1280" y="1464" type="line"/>
      <point x="1019" y="1464" type="line"/>
      <point x="662" y="953" type="line"/>
      <point x="308" y="1464" type="line"/>
      <point x="33" y="1464" type="line"/>
      <point x="524" y="755" type="line"/>
    </contour>
  </outline>
</glyph>
<glyph name="grave" format="1">
  <advance width="496"/>
  <unicode hex="0060"/>
  <outline>
    <contour>
      <point x="398" y="1023" type="move" name="_top"/>
    </contour>
    <contour>
      <point x="343" y="1154" type="line"/>
      <point x="492" y="1154" type="line"/>
      <point x="290" y="1474" type="line"/>
      <point x="-14" y="1474" type="line"/>
    </contour>
  </outline>
</glyph>
<glyph name="b" format="1">
  <advance width="1162"/>
  <unicode hex="0062"/>
  <outline>
    <contour>
      <point x="581" y="1023" type="move" name="top"/>
    </contour>
    <contour>
      <point x="626" y="-24" type="curve" smooth="yes"/>
      <point x="912" y="-24"/>
      <point x="1074" y="166"/>
      <point x="1074" y="524" type="curve" smooth="yes"/>
      <point x="1074" y="871"/>
      <point x="889" y="1047"/>
      <point x="624" y="1047" type="curve" smooth="yes"/>
      <point x="500" y="1047"/>
      <point x="410" y="993"/>
      <point x="346" y="916" type="curve"/>
      <point x="346" y="1474" type="line"/>
      <point x="123" y="1474" type="line"/>
      <point x="123" y="0" type="line"/>
      <point x="294" y="0" type="line"/>
      <point x="305" y="140" type="line"/>
      <point x="371" y="34"/>
      <point x="483" y="-24"/>
    </contour>
    <contour>
      <point x="610" y="133" type="curve" smooth="yes"/>
      <point x="376" y="133"/>
      <point x="339" y="286"/>
      <point x="339" y="522" type="curve" smooth="yes"/>
      <point x="339" y="837"/>
      <point x="489" y="890"/>
      <point x="611" y="890" type="curve" smooth="yes"/>
      <point x="775" y="890"/>
      <point x="846" y="756"/>
      <point x="846" y="519" type="curve" smooth="yes"/>
      <point x="846" y="258"/>
      <point x="782" y="133"/>
    </contour>
  </outline>
</glyph>
<glyph name="c" format="1">
  <advance width="1024"/>
  <unicode hex="0063"/>
  <outline>
    <contour>
      <point x="542" y="-24" type="curve" smooth="yes"/>
      <point x="745" y="-24"/>
      <point x="907" y="46"/>
      <point x="963" y="299" type="curve"/>
      <point x="786" y="353" type="line"/>
      <point x="750" y="197"/>
      <point x="677" y="134"/>
      <point x="551" y="134" type="curve" smooth="yes"/>
      <point x="409" y="134"/>
      <point x="315" y="248"/>
      <point x="315" y="514" type="curve" smooth="yes"/>
      <point x="315" y="769"/>
      <point x="406" y="889"/>
      <point x="551" y="889" type="curve" smooth="yes"/>
      <point x="675" y="889"/>
      <point x="744" y="827"/>
      <point x="781" y="679" type="curve"/>
      <point x="965" y="724" type="line"/>
      <point x="909" y="969"/>
      <point x="748" y="1047"/>
      <point x="543" y="1047" type="curve" smooth="yes"/>
      <point x="247" y="1047"/>
      <point x="87" y="819"/>
      <point x="87" y="511" type="curve" smooth="yes"/>
      <point x="87" y="204"/>
      <point x="245" y="-24"/>
    </contour>
    <contour>
      <point x="512" y="1023" type="move" name="top"/>
    </contour>
    <contour>
      <point x="512" y="0" type="move" name="bot"/>
    </contour>
  </outline>
</glyph>
<glyph name="d" format="1">
  <advance width="1160"/>
  <unicode hex="0064"/>
  <outline>
    <contour>
      <point x="580" y="1023" type="move" name="top"/>
    </contour>
    <contour>
      <point x="933" y="1023" type="move" name="caron.alt"/>
    </contour>
    <contour>
      <point x="580" y="1023" type="move" name="mid"/>
    </contour>
    <contour>
      <point x="539" y="-24" type="curve" smooth="yes"/>
      <point x="678" y="-24"/>
      <point x="788" y="32"/>
      <point x="856" y="134" type="curve"/>
      <point x="865" y="5" type="line"/>
      <point x="1036" y="5" type="line"/>
      <point x="1036" y="1479" type="line"/>
      <point x="814" y="1479" type="line"/>
      <point x="814" y="922" type="line"/>
      <point x="752" y="997"/>
      <point x="664" y="1047"/>
      <point x="543" y="1047" type="curve" smooth="yes"/>
      <point x="279" y="1047"/>
      <point x="87" y="876"/>
      <point x="87" y="526" type="curve" smooth="yes"/>
      <point x="87" y="168"/>
      <point x="253" y="-24"/>
    </contour>
    <contour>
      <point x="555" y="133" type="curve" smooth="yes"/>
      <point x="379" y="142"/>
      <point x="314" y="264"/>
      <point x="314" y="524" type="curve" smooth="yes"/>
      <point x="314" y="766"/>
      <point x="386" y="882"/>
      <point x="550" y="890" type="curve" smooth="yes"/>
      <point x="672" y="896"/>
      <point x="824" y="833"/>
      <point x="824" y="522" type="curve" smooth="yes"/>
      <point x="824" y="304"/>
      <point x="773" y="122"/>
    </contour>
  </outline>
</glyph>
<glyph name="e" format="1">
  <advance width="1033"/>
  <unicode hex="0065"/>
  <outline>
    <contour>
      <point x="516.5" y="1023" type="move" name="top"/>
    </contour>
    <contour>
      <point x="550" y="0" type="move" name="bot"/>
    </contour>
    <contour>
      <point x="650" y="0" type="move" name="ogonek"/>
    </contour>
    <contour>
      <point x="553" y="-24" type="curve" smooth="yes"/>
      <point x="756" y="-24"/>
      <point x="900" y="98"/>
      <point x="947" y="276" type="curve"/>
      <point x="780" y="313" type="line"/>
      <point x="745" y="220"/>
      <point x="688" y="134"/>
      <point x="550" y="134" type="curve" smooth="yes"/>
      <point x="371" y="134"/>
      <point x="313" y="309"/>
      <point x="310" y="463" type="curve"/>
      <point x="961" y="463" type="line"/>
      <point x="963" y="480"/>
      <point x="964" y="560"/>
      <point x="964" y="569" type="curve" smooth="yes"/>
      <point x="964" y="842"/>
      <point x="830" y="1047"/>
      <point x="545" y="1047" type="curve" smooth="yes"/>
      <point x="255" y="1047"/>
      <point x="87" y="846"/>
      <point x="87" y="512" type="curve" smooth="yes"/>
      <point x="87" y="215"/>
      <point x="229" y="-24"/>
    </contour>
    <contour>
      <point x="310" y="609" type="line"/>
      <point x="313" y="712"/>
      <point x="360" y="889"/>
      <point x="540" y="889" type="curve" smooth="yes"/>
      <point x="697" y="889"/>
      <point x="756" y="794"/>
      <point x="755" y="609" type="curve"/>
    </contour>
  </outline>
</glyph>
<glyph name="j" format="1">
  <advance width="518"/>
  <unicode hex="006A"/>
  <outline>
    <contour>
      <point x="133" y="-388" type="curve" smooth="yes"/>
      <point x="323" y="-388"/>
      <point x="415" y="-317"/>
      <point x="415" y="-47" type="curve" smooth="yes"/>
      <point x="415" y="1023" type="line"/>
      <point x="192" y="1023" type="line"/>
      <point x="192" y="-91" type="line" smooth="yes"/>
      <point x="192" y="-176"/>
      <point x="152" y="-207"/>
      <point x="97" y="-207" type="curve" smooth="yes"/>
      <point x="64" y="-207"/>
      <point x="21" y="-196"/>
      <point x="-23" y="-176" type="curve"/>
      <point x="-66" y="-342" type="line"/>
      <point x="-17" y="-370"/>
      <point x="62" y="-388"/>
    </contour>
    <contour>
      <point x="183" y="1234" type="line"/>
      <point x="413" y="1234" type="line"/>
      <point x="413" y="1478" type="line"/>
      <point x="183" y="1478" type="line"/>
    </contour>
  </outline>
</glyph>
<glyph name="r" format="1">
  <advance width="682"/>
  <unicode hex="0072"/>
  <outline>
    <contour>
      <point x="341" y="1023" type="move" name="top"/>
    </contour>
    <contour>
      <point x="341" y="0" type="move" name="bot"/>
    </contour>
    <contour>
      <point x="121" y="0" type="line"/>
      <point x="344" y="0" type="line"/>
      <point x="344" y="494" type="line"/>
      <point x="343" y="680"/>
      <point x="426" y="839"/>
      <point x="645" y="839" type="curve"/>
      <point x="645" y="1036" type="line"/>
      <point x="516" y="1036"/>
      <point x="417" y="987"/>
      <point x="344" y="870" type="curve"/>
      <point x="344" y="1023" type="line"/>
      <point x="121" y="1023" type="line"/>
    </contour>
  </outline>
</glyph>
<glyph name="s" format="1">
  <advance width="934"/>
  <unicode hex="0073"/>
  <outline>
    <contour>
      <point x="466" y="-24" type="curve" smooth="yes"/>
      <point x="759" y="-24"/>
      <point x="870" y="86"/>
      <point x="870" y="286" type="curve" smooth="yes"/>
      <point x="870" y="486"/>
      <point x="772" y="551"/>
      <point x="503" y="613" type="curve" smooth="yes"/>
      <point x="346" y="649"/>
      <point x="294" y="664"/>
      <point x="298" y="761" type="curve" smooth="yes"/>
      <point x="301" y="855"/>
      <point x="336" y="890"/>
      <point x="491" y="890" type="curve" smooth="yes"/>
      <point x="616" y="890"/>
      <point x="666" y="866"/>
      <point x="721" y="772" type="curve"/>
      <point x="721" y="773"/>
      <point x="857" y="850"/>
      <point x="857" y="850" type="curve"/>
      <point x="783" y="997"/>
      <point x="668" y="1047"/>
      <point x="485" y="1047" type="curve" smooth="yes"/>
      <point x="248" y="1047"/>
      <point x="90" y="946"/>
      <point x="90" y="761" type="curve" smooth="yes"/>
      <point x="90" y="557"/>
      <point x="182" y="502"/>
      <point x="413" y="448" type="curve" smooth="yes"/>
      <point x="656" y="392"/>
      <point x="680" y="387"/>
      <point x="678" y="260" type="curve" smooth="yes"/>
      <point x="676" y="160"/>
      <point x="605" y="133"/>
      <point x="481" y="133" type="curve" smooth="yes"/>
      <point x="318" y="133"/>
      <point x="275" y="163"/>
      <point x="224" y="291" type="curve"/>
      <point x="62" y="224" type="line"/>
      <point x="114" y="33"/>
      <point x="278" y="-24"/>
    </contour>
    <contour>
      <point x="467" y="1023" type="move" name="top"/>
    </contour>
    <contour>
      <point x="480" y="0" type="move" name="bot"/>
    </contour>
  </outline>
</glyph>
<glyph name="yen" format="1">
  <advance width="1162"/>
  <unicode hex="00A5"/>
  <outline>
    <component base="Y"/>
    <contour>
      <point x="210" y="300" type="line"/>
      <point x="956" y="300" type="line"/>
      <point x="956" y="434" type="line"/>
      <point x="210" y="434" type="line"/>
    </contour>
    <contour>
      <point x="210" y="542" type="line"/>
      <point x="956" y="542" type="line"/>
      <point x="956" y="675" type="line"/>
      <point x="210" y="675" type="line"/>
    </contour>
  </outline>
</glyph>
<glyph name="section" format="1">
  <advance width="1005"/>
  <unicode hex="00A7"/>
  <outline>
    <contour>
      <point x="543" y="-24" type="curve" smooth="yes"/>
      <point x="775" y="-24"/>
      <point x="923" y="77"/>
      <point x="921" y="267" type="curve" smooth="yes"/>
      <point x="919" y="370"/>
      <point x="845" y="433"/>
      <point x="770" y="483" type="curve"/>
      <point x="879" y="591"/>
      <point x="879" y="645"/>
      <point x="887" y="712" type="curve" smooth="yes"/>
      <point x="920" y="990"/>
      <point x="350" y="1071"/>
      <point x="366" y="1218" type="curve" smooth="yes"/>
      <point x="369" y="1268"/>
      <point x="420" y="1308"/>
      <point x="529" y="1310" type="curve" smooth="yes"/>
      <point x="604" y="1311"/>
      <point x="685" y="1299"/>
      <point x="740" y="1193" type="curve"/>
      <point x="740" y="1194"/>
      <point x="884" y="1284"/>
      <point x="884" y="1284" type="curve"/>
      <point x="812" y="1436"/>
      <point x="707" y="1489"/>
      <point x="530" y="1489" type="curve" smooth="yes"/>
      <point x="311" y="1489"/>
      <point x="144" y="1391"/>
      <point x="144" y="1202" type="curve" smooth="yes"/>
      <point x="144" y="1084"/>
      <point x="223" y="1028"/>
      <point x="291" y="987" type="curve"/>
      <point x="174" y="895"/>
      <point x="152" y="823"/>
      <point x="151" y="755" type="curve" smooth="yes"/>
      <point x="146" y="428"/>
      <point x="744" y="392"/>
      <point x="721" y="246" type="curve" smooth="yes"/>
      <point x="714" y="205"/>
      <point x="679" y="161"/>
      <point x="545" y="161" type="curve" smooth="yes"/>
      <point x="429" y="161"/>
      <point x="337" y="201"/>
      <point x="288" y="331" type="curve"/>
      <point x="127" y="273" type="line"/>
      <point x="168" y="49"/>
      <point x="378" y="-24"/>
    </contour>
    <contour>
      <point x="614" y="562" type="curve"/>
      <point x="343" y="678"/>
      <point x="253" y="736"/>
      <point x="422" y="913" type="curve"/>
      <point x="716" y="786"/>
      <point x="739" y="729"/>
    </contour>
  </outline>
</glyph>
<glyph name="dieresis" format="1">
  <advance width="860"/>
  <unicode hex="00A8"/>
  <outline>
    <contour>
      <point x="430" y="1023" type="move" name="_top"/>
    </contour>
    <contour>
      <point x="66" y="1160" type="line"/>
      <point x="313" y="1160" type="line"/>
      <point x="313" y="1403" type="line"/>
      <point x="66" y="1403" type="line"/>
    </contour>
    <contour>
      <point x="526" y="1160" type="line"/>
      <point x="772" y="1160" type="line"/>
      <point x="772" y="1403" type="line"/>
      <point x="526" y="1403" type="line"/>
    </contour>
  </outline>
</glyph>
<glyph name="guillemotleft" format="1">
  <advance width="946"/>
  <unicode hex="00AB"/>
  <outline>
    <contour>
      <point x="441" y="227" type="line"/>
      <point x="441" y="449" type="line"/>
      <point x="140" y="650" type="line"/>
      <point x="441" y="850" type="line"/>
      <point x="441" y="1072" type="line"/>
      <point x="-16" y="806" type="line"/>
      <point x="-16" y="494" type="line"/>
    </contour>
    <contour>
      <point x="938" y="227" type="line"/>
      <point x="938" y="449" type="line"/>
      <point x="637" y="650" type="line"/>
      <point x="938" y="850" type="line"/>
      <point x="938" y="1072" type="line"/>
      <point x="482" y="806" type="line"/>
      <point x="482" y="494" type="line"/>
    </contour>
  </outline>
</glyph>
<glyph name="logicalnot" format="1">
  <advance width="1024"/>
  <unicode hex="00AC"/>
  <outline>
    <contour>
      <point x="779" y="324" type="line"/>
      <point x="912" y="324" type="line"/>
      <point x="912" y="756" type="line"/>
      <point x="135" y="756" type="line"/>
      <point x="135" y="622" type="line"/>
      <point x="779" y="622" type="line"/>
    </contour>
  </outline>
</glyph>
<glyph name="twosuperior" format="1">
  <advance width="1007"/>
  <unicode hex="00B2"/>
  <outline>
    <contour>
      <point x="761" y="1257" type="curve" smooth="yes"/>
      <point x="761" y="1425"/>
      <point x="636" y="1489"/>
      <point x="507" y="1489" type="curve" smooth="yes"/>
      <point x="401" y="1489"/>
      <point x="286" y="1435"/>
      <point x="243" y="1314" type="curve"/>
      <point x="384" y="1244" type="line"/>
      <point x="402" y="1303"/>
      <point x="426" y="1343"/>
      <point x="497" y="1343" type="curve" smooth="yes"/>
      <point x="563" y="1343"/>
      <point x="585" y="1306"/>
      <point x="585" y="1261" type="curve" smooth="yes"/>
      <point x="585" y="1156"/>
      <point x="444" y="1041"/>
      <point x="264" y="879" type="curve"/>
      <point x="264" y="750" type="line"/>
      <point x="770" y="750" type="line"/>
      <point x="770" y="882" type="line"/>
      <point x="462" y="883" type="line"/>
      <point x="610" y="1012"/>
      <point x="761" y="1109"/>
    </contour>
  </outline>
</glyph>
<glyph name="threesuperior" format="1">
  <advance width="1317"/>
  <unicode hex="00B3"/>
  <outline>
    <contour>
      <point x="391" y="863" type="line"/>
      <point x="424" y="729"/>
      <point x="551" y="683"/>
      <point x="662" y="683" type="curve" smooth="yes"/>
      <point x="839" y="683"/>
      <point x="942" y="773"/>
      <point x="942" y="923" type="curve" smooth="yes"/>
      <point x="942" y="980"/>
      <point x="931" y="1069"/>
      <point x="800" y="1118" type="curve"/>
      <point x="886" y="1149"/>
      <point x="916" y="1216"/>
      <point x="916" y="1287" type="curve" smooth="yes"/>
      <point x="916" y="1407"/>
      <point x="811" y="1481"/>
      <point x="657" y="1481" type="curve" smooth="yes"/>
      <point x="569" y="1481"/>
      <point x="441" y="1438"/>
      <point x="409" y="1349" type="curve"/>
      <point x="526" y="1260" type="line"/>
      <point x="550" y="1308"/>
      <point x="587" y="1345"/>
      <point x="645" y="1345" type="curve" smooth="yes"/>
      <point x="707" y="1345"/>
      <point x="754" y="1324"/>
      <point x="754" y="1265" type="curve" smooth="yes"/>
      <point x="754" y="1213"/>
      <point x="728" y="1165"/>
      <point x="595" y="1162" type="curve"/>
      <point x="595" y="1055" type="line"/>
      <point x="753" y="1055"/>
      <point x="772" y="985"/>
      <point x="772" y="915" type="curve" smooth="yes"/>
      <point x="772" y="854"/>
      <point x="710" y="823"/>
      <point x="656" y="823" type="curve" smooth="yes"/>
      <point x="612" y="823"/>
      <point x="549" y="837"/>
      <point x="522" y="937" type="curve"/>
    </contour>
  </outline>
</glyph>
<glyph name="paragraph" format="1">
  <advance width="1038"/>
  <unicode hex="00B6"/>
  <outline>
    <contour>
      <point x="374" y="0" type="line"/>
      <point x="572" y="0" type="line"/>
      <point x="572" y="1283" type="line"/>
      <point x="698" y="1283" type="line"/>
      <point x="698" y="0" type="line"/>
      <point x="896" y="0" type="line"/>
      <point x="896" y="1283" type="line"/>
      <point x="1020" y="1283" type="line"/>
      <point x="1020" y="1464" type="line"/>
      <point x="535" y="1464" type="line" smooth="yes"/>
      <point x="141" y="1464"/>
      <point x="49" y="1305"/>
      <point x="49" y="1126" type="curve" smooth="yes"/>
      <point x="49" y="930"/>
      <point x="161" y="799"/>
      <point x="374" y="799" type="curve"/>
    </contour>
  </outline>
</glyph>
<glyph name="cedilla" format="1">
  <advance width="435"/>
  <unicode hex="00B8"/>
  <outline>
    <contour>
      <point x="204" y="0" type="move" name="_bot"/>
    </contour>
    <contour>
      <point x="55" y="-338" type="line"/>
      <point x="97" y="-354"/>
      <point x="139" y="-362"/>
      <point x="178" y="-362" type="curve" smooth="yes"/>
      <point x="283" y="-362"/>
      <point x="364" y="-303"/>
      <point x="364" y="-190" type="curve" smooth="yes"/>
      <point x="364" y="-155"/>
      <point x="355" y="-120"/>
      <point x="336" y="-90" type="curve" smooth="yes"/>
      <point x="279" y="0" type="line"/>
      <point x="142" y="0" type="line"/>
      <point x="189" y="-90" type="line" smooth="yes"/>
      <point x="202" y="-115"/>
      <point x="210" y="-142"/>
      <point x="210" y="-166" type="curve" smooth="yes"/>
      <point x="210" y="-208"/>
      <point x="187" y="-241"/>
      <point x="131" y="-241" type="curve" smooth="yes"/>
      <point x="109" y="-241"/>
      <point x="83" y="-235"/>
      <point x="55" y="-226" type="curve"/>
    </contour>
  </outline>
</glyph>
<glyph name="ordmasculine" format="1">
  <advance width="1000"/>
  <unicode hex="00BA"/>
  <outline>
    <contour>
      <point x="517" y="737" type="curve" smooth="yes"/>
      <point x="387" y="737"/>
      <point x="324" y="844"/>
      <point x="324" y="1031" type="curve" smooth="yes"/>
      <point x="324" y="1216"/>
      <point x="387" y="1323"/>
      <point x="516" y="1323" type="curve" smooth="yes"/>
      <point x="644" y="1323"/>
      <point x="709" y="1216"/>
      <point x="709" y="1029" type="curve" smooth="yes"/>
      <point x="709" y="843"/>
      <point x="644" y="737"/>
    </contour>
    <contour>
      <point x="516" y="583" type="curve" smooth="yes"/>
      <point x="760" y="583"/>
      <point x="916" y="727"/>
      <point x="916" y="1031" type="curve" smooth="yes"/>
      <point x="916" y="1343"/>
      <point x="749" y="1474"/>
      <point x="517" y="1474" type="curve" smooth="yes"/>
      <point x="282" y="1474"/>
      <point x="116" y="1342"/>
      <point x="116" y="1028" type="curve" smooth="yes"/>
      <point x="116" y="726"/>
      <point x="272" y="583"/>
    </contour>
  </outline>
</glyph>
<glyph name="threequarters" format="1">
  <advance width="1425"/>
  <unicode hex="00BE"/>
  <outline>
    <contour>
      <point x="370" y="743" type="curve"/>
      <point x="537" y="739"/>
      <point x="638" y="821"/>
      <point x="641" y="955" type="curve" smooth="yes"/>
      <point x="642" y="1007"/>
      <point x="639" y="1097"/>
      <point x="510" y="1145" type="curve"/>
      <point x="589" y="1174"/>
      <point x="617" y="1236"/>
      <point x="617" y="1302" type="curve" smooth="yes"/>
      <point x="617" y="1413"/>
      <point x="508" y="1481"/>
      <point x="366" y="1481" type="curve" smooth="yes"/>
      <point x="284" y="1481"/>
      <point x="178" y="1441"/>
      <point x="148" y="1359" type="curve"/>
      <point x="257" y="1277" type="line"/>
      <point x="279" y="1314"/>
      <point x="313" y="1348"/>
      <point x="367" y="1348" type="curve" smooth="yes"/>
      <point x="418" y="1348"/>
      <point x="453" y="1329"/>
      <point x="457" y="1294" type="curve" smooth="yes"/>
      <point x="461" y="1237"/>
      <point x="442" y="1207"/>
      <point x="320" y="1205" type="curve"/>
      <point x="320" y="1069" type="line"/>
      <point x="456" y="1069"/>
      <point x="474" y="1022"/>
      <point x="474" y="958" type="curve" smooth="yes"/>
      <point x="474" y="909"/>
      <point x="427" y="880"/>
      <point x="377" y="880" type="curve" smooth="yes"/>
      <point x="336" y="880"/>
      <point x="278" y="893"/>
      <point x="253" y="978" type="curve"/>
      <point x="132" y="910" type="line"/>
      <point x="161" y="791"/>
      <point x="276" y="744"/>
    </contour>
    <contour>
      <point x="1293" y="0" type="line"/>
      <point x="1469" y="0" type="line"/>
      <point x="1469" y="116" type="line"/>
      <point x="1573" y="116" type="line"/>
      <point x="1573" y="244" type="line"/>
      <point x="1469" y="244" type="line"/>
      <point x="1469" y="693" type="line"/>
      <point x="1239" y="693" type="line"/>
      <point x="954" y="220" type="line"/>
      <point x="954" y="116" type="line"/>
      <point x="1293" y="116" type="line"/>
    </contour>
    <contour>
      <point x="335" y="-14" type="line"/>
      <point x="1570" y="1415" type="line"/>
      <point x="1448" y="1518" type="line"/>
      <point x="212" y="89" type="line"/>
    </contour>
    <contour>
      <point x="1133" y="244" type="line"/>
      <point x="1293" y="536" type="line"/>
      <point x="1293" y="244" type="line"/>
    </contour>
  </outline>
</glyph>
<glyph name="tbar" format="1">
  <advance width="699"/>
  <unicode hex="0167"/>
  <outline>
    <contour>
      <point x="99" y="533" type="line"/>
      <point x="553" y="533" type="line"/>
      <point x="553" y="690" type="line"/>
      <point x="99" y="690" type="line"/>
    </contour>
    <component base="t"/>
  </outline>
</glyph>
<glyph name="circumflex" format="1">
  <advance width="838"/>
  <unicode hex="02C6"/>
  <outline>
    <contour>
      <point x="419" y="1023" type="move" name="_top"/>
    </contour>
    <contour>
      <point x="144" y="1154" type="line"/>
      <point x="293" y="1154" type="line"/>
      <point x="427" y="1367" type="line"/>
      <point x="563" y="1154" type="line"/>
      <point x="712" y="1154" type="line"/>
      <point x="561" y="1474" type="line"/>
      <point x="294" y="1474" type="line"/>
    </contour>
  </outline>
</glyph>
<glyph name="ring" format="1">
  <advance width="728"/>
  <unicode hex="02DA"/>
  <outline>
    <contour>
      <point x="364" y="1023" type="move" name="_top"/>
    </contour>
    <contour>
      <point x="367" y="1364" type="curve" smooth="yes"/>
      <point x="295" y="1364"/>
      <point x="252" y="1417"/>
      <point x="252" y="1491" type="curve" smooth="yes"/>
      <point x="252" y="1565"/>
      <point x="295" y="1618"/>
      <point x="367" y="1618" type="curve" smooth="yes"/>
      <point x="439" y="1618"/>
      <point x="481" y="1565"/>
      <point x="481" y="1491" type="curve" smooth="yes"/>
      <point x="481" y="1417"/>
      <point x="439" y="1364"/>
    </contour>
    <contour>
      <point x="367" y="1233" type="curve" smooth="yes"/>
      <point x="538" y="1233"/>
      <point x="632" y="1357"/>
      <point x="632" y="1491" type="curve" smooth="yes"/>
      <point x="632" y="1625"/>
      <point x="538" y="1749"/>
      <point x="367" y="1749" type="curve" smooth="yes"/>
      <point x="196" y="1749"/>
      <point x="101" y="1625"/>
      <point x="101" y="1491" type="curve" smooth="yes"/>
      <point x="101" y="1357"/>
      <point x="196" y="1233"/>
    </contour>
  </outline>
</glyph>
<glyph name="ogonek" format="1">
  <advance width="462"/>
  <unicode hex="02DB"/>
  <outline>
    <contour>
      <point x="404" y="-382" type="curve"/>
      <point x="404" y="-257" type="line"/>
      <point x="321" y="-276"/>
      <point x="301" y="-244"/>
      <point x="301" y="-199" type="curve" smooth="yes"/>
      <point x="301" y="-141"/>
      <point x="326" y="-83"/>
      <point x="361" y="0" type="curve"/>
      <point x="256" y="0" type="line"/>
      <point x="193" y="-65"/>
      <point x="117" y="-151"/>
      <point x="117" y="-241" type="curve" smooth="yes"/>
      <point x="117" y="-321"/>
      <point x="196" y="-431"/>
    </contour>
    <contour>
      <point x="306" y="0" type="move" name="_ogonek"/>
    </contour>
  </outline>
</glyph>
<glyph name="tilde" format="1">
  <advance width="798"/>
  <unicode hex="02DC"/>
  <outline>
    <contour>
      <point x="432" y="1023" type="move" name="_top"/>
    </contour>
    <contour>
      <point x="575" y="1208" type="curve" smooth="yes"/>
      <point x="690" y="1200"/>
      <point x="709" y="1325"/>
      <point x="709" y="1426" type="curve"/>
      <point x="573" y="1426" type="line"/>
      <point x="569" y="1372"/>
      <point x="556" y="1358"/>
      <point x="530" y="1359" type="curve" smooth="yes"/>
      <point x="448" y="1365"/>
      <point x="372" y="1430"/>
      <point x="241" y="1440" type="curve" smooth="yes"/>
      <point x="128" y="1447"/>
      <point x="100" y="1345"/>
      <point x="100" y="1248" type="curve" smooth="yes"/>
      <point x="100" y="1238"/>
      <point x="101" y="1228"/>
      <point x="101" y="1217" type="curve"/>
      <point x="236" y="1217" type="line"/>
      <point x="240" y="1272"/>
      <point x="265" y="1290"/>
      <point x="289" y="1288" type="curve"/>
      <point x="408" y="1272"/>
      <point x="459" y="1216"/>
    </contour>
  </outline>
</glyph>
<glyph name="dblgravecmb" format="1">
  <advance width="745"/>
  <unicode hex="030F"/>
  <outline>
    <contour>
      <point x="317" y="1152" type="line"/>
      <point x="430" y="1152" type="line"/>
      <point x="344" y="1495" type="line"/>
      <point x="42" y="1495" type="line"/>
    </contour>
    <contour>
      <point x="664" y="1152" type="line"/>
      <point x="767" y="1152" type="line"/>
      <point x="708" y="1495" type="line"/>
      <point x="415" y="1495" type="line"/>
    </contour>
  </outline>
</glyph>
<glyph name="Sigma" format="1">
  <advance width="1309"/>
  <unicode hex="03A3"/>
  <outline>
    <contour>
      <point x="1193" y="0" type="line"/>
      <point x="1193" y="201" type="line"/>
      <point x="393" y="201" type="line"/>
      <point x="840" y="673" type="line"/>
      <point x="840" y="824" type="line"/>
      <point x="424" y="1266" type="line"/>
      <point x="1193" y="1266" type="line"/>
      <point x="1193" y="1464" type="line"/>
      <point x="126" y="1464" type="line"/>
      <point x="126" y="1267" type="line"/>
      <point x="614" y="722" type="line"/>
      <point x="126" y="220" type="line"/>
      <point x="126" y="0" type="line"/>
    </contour>
  </outline>
</glyph>
<glyph name="mu" format="1">
  <advance width="1119"/>
  <unicode hex="03BC"/>
  <outline>
    <contour>
      <point x="113" y="-224" type="line"/>
      <point x="335" y="-224" type="line"/>
      <point x="335" y="-3.80319" type="line"/>
      <point x="375.181" y="-16.7968"/>
      <point x="422.446" y="-24"/>
      <point x="478" y="-24" type="curve" smooth="yes"/>
      <point x="623" y="-24"/>
      <point x="725" y="29"/>
      <point x="796" y="123" type="curve"/>
      <point x="796" y="0" type="line"/>
      <point x="1018" y="0" type="line"/>
      <point x="1018" y="1023" type="line"/>
      <point x="796" y="1023" type="line"/>
      <point x="796" y="534" type="line" smooth="yes"/>
      <point x="796" y="336"/>
      <point x="738" y="133"/>
      <point x="521" y="133" type="curve" smooth="yes"/>
      <point x="384" y="133"/>
      <point x="335" y="225"/>
      <point x="335" y="420" type="curve" smooth="yes"/>
      <point x="335" y="1023" type="line"/>
      <point x="113" y="1023" type="line"/>
    </contour>
  </outline>
</glyph>
<glyph name="pi" format="1">
  <advance width="1343"/>
  <unicode hex="03C0"/>
  <outline>
    <contour>
      <point x="1083" y="-13" type="curve" smooth="yes"/>
      <point x="1157" y="-13"/>
      <point x="1221" y="10"/>
      <point x="1254" y="42" type="curve"/>
      <point x="1254" y="166" type="line"/>
      <point x="1227" y="156"/>
      <point x="1170" y="131"/>
      <point x="1131" y="131" type="curve" smooth="yes"/>
      <point x="1054" y="131"/>
      <point x="1012" y="227"/>
      <point x="1012" y="435" type="curve" smooth="yes"/>
      <point x="1012" y="548"/>
      <point x="1023" y="688"/>
      <point x="1048" y="863" type="curve"/>
      <point x="1276" y="863" type="line"/>
      <point x="1276" y="1023" type="line"/>
      <point x="417" y="1023" type="line" smooth="yes"/>
      <point x="187" y="1023"/>
      <point x="116" y="945"/>
      <point x="116" y="735" type="curve"/>
      <point x="208" y="735" type="line"/>
      <point x="220" y="809"/>
      <point x="258" y="863"/>
      <point x="336" y="863" type="curve" smooth="yes"/>
      <point x="465" y="863" type="line"/>
      <point x="404" y="375" type="line" smooth="yes"/>
      <point x="378" y="165"/>
      <point x="250" y="108"/>
      <point x="127" y="108" type="curve"/>
      <point x="127" y="3" type="line"/>
      <point x="462" y="3"/>
      <point x="542" y="101"/>
      <point x="559" y="313" type="curve" smooth="yes"/>
      <point x="602" y="863" type="line"/>
      <point x="905" y="863" type="line"/>
      <point x="876" y="641"/>
      <point x="840" y="437"/>
      <point x="840" y="280" type="curve" smooth="yes"/>
      <point x="840" y="106"/>
      <point x="908" y="-13"/>
    </contour>
  </outline>
</glyph>
<glyph name="quoteright" format="1">
  <advance width="330"/>
  <unicode hex="2019"/>
  <outline>
    <contour>
      <point x="160" y="991" type="line"/>
      <point x="319" y="1104"/>
      <point x="295" y="1284"/>
      <point x="299" y="1464" type="curve"/>
      <point x="102" y="1464" type="line"/>
      <point x="102" y="1292" type="line" smooth="yes"/>
      <point x="102" y="1291"/>
      <point x="192" y="1273"/>
      <point x="192" y="1274" type="curve"/>
      <point x="189" y="1154"/>
      <point x="138" y="1076"/>
      <point x="113" y="1053" type="curve"/>
    </contour>
  </outline>
</glyph>
<glyph name="perthousand" format="1">
  <advance width="2411"/>
  <unicode hex="2030"/>
  <outline>
    <component base="percent"/>
    <contour>
      <point x="2058" y="118" type="curve" smooth="yes"/>
      <point x="1962" y="118"/>
      <point x="1912" y="206"/>
      <point x="1912" y="322" type="curve" smooth="yes"/>
      <point x="1912" y="429"/>
      <point x="1968" y="520"/>
      <point x="2058" y="520" type="curve" smooth="yes"/>
      <point x="2151" y="520"/>
      <point x="2202" y="433"/>
      <point x="2202" y="320" type="curve" smooth="yes"/>
      <point x="2202" y="206"/>
      <point x="2149" y="118"/>
    </contour>
    <contour>
      <point x="2059" y="-28" type="curve" smooth="yes"/>
      <point x="2260" y="-28"/>
      <point x="2373" y="144"/>
      <point x="2373" y="318" type="curve" smooth="yes"/>
      <point x="2373" y="490"/>
      <point x="2260" y="664"/>
      <point x="2059" y="664" type="curve" smooth="yes"/>
      <point x="1856" y="664"/>
      <point x="1740" y="489"/>
      <point x="1740" y="316" type="curve" smooth="yes"/>
      <point x="1740" y="143"/>
      <point x="1854" y="-28"/>
    </contour>
  </outline>
</glyph>
<glyph name="guilsinglleft" format="1">
  <advance width="528"/>
  <unicode hex="2039"/>
  <outline>
    <contour>
      <point x="507" y="227" type="line"/>
      <point x="507" y="448" type="line"/>
      <point x="197" y="650" type="line"/>
      <point x="507" y="849" type="line"/>
      <point x="507" y="1072" type="line"/>
      <point x="42" y="805" type="line"/>
      <point x="42" y="493" type="line"/>
    </contour>
  </outline>
</glyph>
<glyph name="trademark" format="1">
  <advance width="1847"/>
  <unicode hex="2122"/>
  <outline>
    <contour>
      <point x="908" y="615" type="line"/>
      <point x="1073" y="615" type="line"/>
      <point x="1073" y="1175" type="line"/>
      <point x="1259" y="731" type="line"/>
      <point x="1402" y="731" type="line"/>
      <point x="1590" y="1172" type="line"/>
      <point x="1590" y="615" type="line"/>
      <point x="1748" y="615" type="line"/>
      <point x="1748" y="1463" type="line"/>
      <point x="1552" y="1463" type="line"/>
      <point x="1336" y="955" type="line"/>
      <point x="1117" y="1464" type="line"/>
      <point x="908" y="1464" type="line"/>
    </contour>
    <contour>
      <point x="347" y="615" type="line"/>
      <point x="521" y="615" type="line"/>
      <point x="521" y="1335" type="line"/>
      <point x="757" y="1335" type="line"/>
      <point x="757" y="1464" type="line"/>
      <point x="116" y="1464" type="line"/>
      <point x="116" y="1335" type="line"/>
      <point x="347" y="1335" type="line"/>
    </contour>
  </outline>
</glyph>
<glyph name="uni2126" format="1">
  <advance width="1758"/>
  <unicode hex="2126"/>
  <outline>
    <contour>
      <point x="103" y="0" type="line"/>
      <point x="795" y="0" type="line"/>
      <point x="795" y="130" type="line"/>
      <point x="507" y="243"/>
      <point x="352" y="513"/>
      <point x="352" y="780" type="curve" smooth="yes"/>
      <point x="352" y="1136"/>
      <point x="618" y="1307"/>
      <point x="879" y="1307" type="curve" smooth="yes"/>
      <point x="1141" y="1307"/>
      <point x="1406" y="1136"/>
      <point x="1406" y="780" type="curve" smooth="yes"/>
      <point x="1406" y="513"/>
      <point x="1251" y="243"/>
      <point x="963" y="130" type="curve"/>
      <point x="963" y="0" type="line"/>
      <point x="1655" y="0" type="line"/>
      <point x="1655" y="139" type="line"/>
      <point x="1239" y="139" type="line"/>
      <point x="1504" y="297"/>
      <point x="1629" y="545"/>
      <point x="1629" y="780" type="curve" smooth="yes"/>
      <point x="1629" y="1256"/>
      <point x="1256" y="1491"/>
      <point x="879" y="1491" type="curve" smooth="yes"/>
      <point x="502" y="1491"/>
      <point x="129" y="1256"/>
      <point x="129" y="780" type="curve" smooth="yes"/>
      <point x="129" y="545"/>
      <point x="254" y="297"/>
      <point x="519" y="139" type="curve"/>
      <point x="103" y="139" type="line"/>
    </contour>
  </outline>
</glyph>
<glyph name="emptyset" format="1">
  <advance width="1702"/>
  <unicode hex="2205"/>
  <outline>
    <contour>
      <point x="279" y="-81" type="line"/>
      <point x="429" y="97" type="line"/>
      <point x="549" y="18"/>
      <point x="694" y="-25"/>
      <point x="850" y="-25" type="curve" smooth="yes"/>
      <point x="1251" y="-25"/>
      <point x="1579" y="297"/>
      <point x="1579" y="696" type="curve" smooth="yes"/>
      <point x="1579" y="895"/>
      <point x="1498" y="1073"/>
      <point x="1369" y="1204" type="curve"/>
      <point x="1520" y="1382" type="line"/>
      <point x="1430" y="1460" type="line"/>
      <point x="1279" y="1281" type="line"/>
      <point x="1158" y="1367"/>
      <point x="1010" y="1419"/>
      <point x="850" y="1419" type="curve" smooth="yes"/>
      <point x="451" y="1419"/>
      <point x="123" y="1127"/>
      <point x="123" y="696" type="curve" smooth="yes"/>
      <point x="123" y="474"/>
      <point x="206" y="292"/>
      <point x="341" y="167" type="curve"/>
      <point x="196" y="-6" type="line"/>
    </contour>
    <contour>
      <point x="433" y="276" type="line"/>
      <point x="332" y="378"/>
      <point x="272" y="524"/>
      <point x="272" y="695" type="curve" smooth="yes"/>
      <point x="272" y="1037"/>
      <point x="521" y="1285"/>
      <point x="850" y="1285" type="curve" smooth="yes"/>
      <point x="978" y="1285"/>
      <point x="1095" y="1243"/>
      <point x="1189" y="1174" type="curve"/>
    </contour>
    <contour>
      <point x="849" y="109" type="curve" smooth="yes"/>
      <point x="725" y="109"/>
      <point x="612" y="142"/>
      <point x="520" y="204" type="curve"/>
      <point x="1276" y="1095" type="line"/>
      <point x="1372" y="988"/>
      <point x="1430" y="846"/>
      <point x="1430" y="695" type="curve" smooth="yes"/>
      <point x="1430" y="382"/>
      <point x="1179" y="109"/>
    </contour>
  </outline>
</glyph>
<glyph name="product" format="1">
  <advance width="1368"/>
  <unicode hex="220F"/>
  <outline>
    <contour>
      <point x="134" y="0" type="line"/>
      <point x="365" y="0" type="line"/>
      <point x="365" y="1292" type="line"/>
      <point x="1004" y="1292" type="line"/>
      <point x="1004" y="0" type="line"/>
      <point x="1235" y="0" type="line"/>
      <point x="1235" y="1464" type="line"/>
      <point x="134" y="1464" type="line"/>
    </contour>
  </outline>
</glyph>
<glyph name="lessequal" format="1">
  <advance width="1051"/>
  <unicode hex="2264"/>
  <outline>
    <contour>
      <point x="998" y="254" type="line"/>
      <point x="998" y="449" type="line"/>
      <point x="300" y="627" type="line"/>
      <point x="998" y="789" type="line"/>
      <point x="998" y="1030" type="line"/>
      <point x="49" y="728" type="line"/>
      <point x="49" y="524" type="line"/>
    </contour>
    <contour>
      <point x="47" y="0" type="line"/>
      <point x="1009" y="0" type="line"/>
      <point x="1009" y="138" type="line"/>
      <point x="47" y="138" type="line"/>
    </contour>
  </outline>
</glyph>
